<svg width="546" height="481" viewBox="0 0 546 481" fill="none" xmlns="http://www.w3.org/2000/svg">
<path d="M314.772 406.596H249.959C251.854 396.741 253.749 386.507 255.644 376.653C244.273 395.604 229.87 410.386 206.371 410.386C171.501 410.386 163.541 370.967 163.541 343.298C163.541 327 165.057 310.702 168.847 294.783C176.049 264.461 195.379 225.801 231.386 225.801C252.991 225.801 262.087 239.446 268.91 257.639C269.289 248.163 270.047 239.067 270.426 229.591H336.376L314.772 406.596ZM251.096 280.001C232.903 280.001 228.733 322.073 228.733 335.339C228.733 343.677 229.491 356.185 240.483 356.185C258.297 356.185 261.708 310.323 261.708 297.436C261.708 290.235 260.571 280.001 251.096 280.001Z" fill="black"/>
<path d="M392.024 406.596H327.211L361.323 130.287H426.136L392.024 406.596Z" fill="black"/>
<path d="M537.636 191.69C534.224 188.279 530.434 185.247 525.128 185.247C515.273 185.247 513.757 195.86 512.999 203.44L509.967 229.593H522.285C528.034 229.593 532.456 234.647 531.761 240.332L527.655 274.255C527.086 279.056 522.98 282.656 518.179 282.656H503.523L488.362 406.597H423.549L438.71 282.656H430.94C425.192 282.656 420.77 277.603 421.465 271.917L425.571 237.995C426.139 233.194 430.245 229.593 435.046 229.593H445.533C448.186 206.093 448.565 180.699 458.799 160.989C469.79 139.385 491.395 126.119 515.652 126.119C525.886 126.119 535.741 128.014 545.216 130.667L537.636 191.69Z" fill="black"/>
<path d="M43.5109 26.1183C40.7946 23.5283 37.5728 21.7595 33.6563 21.7595C25.4441 21.7595 20.5167 29.1505 20.5167 36.7941C20.5167 51.7024 41.2999 57.5773 41.2999 79.1185C41.2999 93.8373 32.077 109.061 15.8421 109.061C10.7884 109.061 6.30331 107.735 2.38672 104.45L3.96599 91.5632C7.44038 94.469 11.0411 96.6168 15.6526 96.6168C24.307 96.6168 28.6658 88.6573 28.6658 80.8873C28.6658 64.2734 7.69306 59.7883 7.69306 39.1314C7.69306 24.4126 16.2211 10.1992 32.3928 10.1992C37.4465 10.1992 40.7946 10.7678 45.0902 13.3578L43.3846 26.0551L43.5109 26.1183Z" fill="black"/>
<path d="M73.3893 52.4604H67.009L60.1866 107.798H48.5L55.3224 52.4604H48.8159L49.9529 43.2375H56.4595L58.6073 24.918H70.2939L68.1461 43.2375H74.5264L73.3893 52.4604Z" fill="black"/>
<path d="M91.8977 108.809C78.6319 108.809 75.4102 98.259 75.4102 87.0146C75.4102 70.8429 78.8846 42.2266 100.236 42.2266C113.123 42.2266 116.85 52.4602 116.85 63.6415C116.85 79.8132 113.502 108.872 91.8346 108.872L91.8977 108.809ZM98.9729 53.0288C96.3829 53.0288 94.8036 54.3553 93.477 56.3768C89.4341 62.4412 87.8548 80.8239 87.8548 88.2781C87.8548 92.1946 88.5497 97.6905 93.6665 97.6905C96.2565 97.6905 97.8358 96.3639 99.2887 94.2161C103.332 88.1517 104.911 69.9585 104.911 62.4412C104.911 58.3983 104.216 53.0288 98.9729 53.0288Z" fill="black"/>
<path d="M155.389 56.6302C154.252 54.4824 152.357 53.598 149.894 53.598C138.46 53.598 137.007 75.8341 137.007 83.9199C137.007 89.2895 137.323 97.5017 144.524 97.5017C146.861 97.5017 148.883 96.4909 150.715 95.038L149.262 106.156C145.787 108.051 143.45 108.746 139.47 108.746C127.215 108.746 123.867 97.8807 123.867 87.5207C123.867 78.1082 125.446 67.306 128.479 58.4621C131.637 49.2392 137.449 42.1641 147.998 42.1641C151.599 42.1641 153.81 42.7326 156.969 44.5014L155.389 56.6302Z" fill="black"/>
<path d="M185.014 73.1178L199.733 107.799H186.467L173.454 75.7078L169.411 107.799H157.725L170.675 2.42969H182.361L173.959 70.7805L191.9 43.1748H205.482L184.951 73.1178H185.014Z" fill="black"/>
<path d="M257.974 108.809C244.708 108.809 241.486 98.259 241.486 87.0146C241.486 70.8429 244.961 42.2266 266.312 42.2266C279.199 42.2266 282.926 52.4602 282.926 63.6415C282.926 79.8132 279.578 108.872 257.911 108.872L257.974 108.809ZM265.049 53.0288C262.459 53.0288 260.88 54.3553 259.553 56.3768C255.51 62.4412 253.931 80.8239 253.931 88.2781C253.931 92.1946 254.626 97.6905 259.743 97.6905C262.333 97.6905 263.912 96.3639 265.365 94.2161C269.408 88.1517 270.987 69.9585 270.987 62.4412C270.987 58.3983 270.292 53.0288 265.049 53.0288Z" fill="black"/>
<path d="M324.302 15.1262C322.849 14.2418 321.27 13.5469 319.564 13.5469C312.616 13.5469 313.184 21.3801 312.489 26.2443L310.341 43.174H320.322L319.185 52.7128H309.204L302.382 107.735H290.695L297.518 52.7128H291.58L292.717 43.174H298.655L301.371 20.9379C302.698 10.2621 305.414 0.849609 318.111 0.849609C321.017 0.849609 323.291 1.41815 325.945 2.55522L324.365 15.1262H324.302Z" fill="black"/>
<path d="M97.9733 461.14H83.4656L79.7512 469.337H74.1504L91.0501 433.389L107.143 469.337H101.542L97.9733 461.14ZM95.8827 456.259L90.8459 444.756L85.6048 456.259H95.8924H95.8827Z" fill="black"/>
<path d="M128.468 448.926L141.604 435.381H148.43L133.106 450.754L148.537 469.336H141.614L129.499 454.264L128.478 455.285V469.336H123.285V435.381H128.478V448.926H128.468Z" fill="black"/>
<path d="M155.601 447.906V460.177C155.601 461.451 155.65 462.929 156.515 464.047C157.177 464.913 158.344 465.525 159.773 465.525C161.202 465.525 162.369 464.913 163.03 464.047C163.896 462.929 163.944 461.451 163.944 460.177V447.906H168.933V460.333C168.933 463.085 168.631 465.37 166.638 467.363C164.644 469.357 162.058 470.008 159.666 470.008C157.478 470.008 154.833 469.347 152.898 467.363C150.915 465.38 150.604 463.085 150.604 460.333V447.906H155.592H155.601Z" fill="black"/>
<path d="M175.254 447.906H180.242V449.841C180.806 449.18 181.613 448.47 182.333 448.061C183.295 447.497 184.268 447.352 185.386 447.352C186.611 447.352 187.934 447.556 189.305 448.373L187.272 452.904C186.154 452.194 185.24 452.136 184.725 452.136C183.655 452.136 182.586 452.291 181.623 453.302C180.252 454.78 180.252 456.813 180.252 458.242V469.337H175.264V447.906H175.254Z" fill="black"/>
<path d="M195.976 447.906L201.47 460.129L206.973 447.906H212.574L201.479 470.864L190.385 447.906H195.986H195.976Z" fill="black"/>
<path d="M231.203 447.906H236.191V469.337H231.203V467.1C229.015 469.648 226.312 469.998 224.785 469.998C218.163 469.998 214.4 464.504 214.4 458.592C214.4 451.62 219.184 447.342 224.834 447.342C226.409 447.342 229.161 447.75 231.193 450.395V447.896L231.203 447.906ZM219.496 458.699C219.496 462.413 221.839 465.525 225.456 465.525C228.616 465.525 231.514 463.23 231.514 458.757C231.514 454.284 228.616 451.834 225.456 451.834C221.839 451.834 219.496 454.887 219.496 458.709V458.699Z" fill="black"/>
<path d="M247.498 432.223V469.338H242.51V432.223H247.498Z" fill="black"/>
<path d="M259.315 452.486V469.337H254.327V452.486H252.188V447.906H254.327V440.478C254.327 437.172 255.192 435.081 256.417 433.759C257.331 432.796 258.916 431.668 261.512 431.668C262.582 431.668 263.652 431.824 264.721 432.281V437.22C263.7 436.608 263.039 436.452 262.329 436.452C261.717 436.452 260.803 436.549 260.141 437.269C259.889 437.522 259.325 438.29 259.325 439.816V447.916H264.721V452.496H259.325L259.315 452.486Z" fill="black"/>
<path d="M305.488 443.324C301.725 439.911 298.205 439.561 296.27 439.561C288.89 439.561 283.901 445.007 283.901 452.494C283.901 459.981 289.094 465.222 296.328 465.222C300.402 465.222 303.563 463.131 305.488 461.303V467.468C302.075 469.5 298.516 470.016 296.173 470.016C290.008 470.016 286.148 467.215 284.154 465.329C280.187 461.615 278.709 457.288 278.709 452.494C278.709 446.232 281.305 441.905 284.154 439.202C287.664 435.896 291.739 434.768 296.425 434.768C299.527 434.768 302.532 435.332 305.488 437.208V443.315V443.324Z" fill="black"/>
<path d="M332.774 458.65C332.774 465.214 327.786 470.008 321.32 470.008C314.853 470.008 309.865 465.224 309.865 458.65C309.865 452.077 314.853 447.352 321.32 447.352C327.786 447.352 332.774 452.038 332.774 458.65ZM327.689 458.699C327.689 453.808 324.48 451.824 321.329 451.824C318.179 451.824 314.96 453.808 314.96 458.699C314.96 462.822 317.401 465.525 321.329 465.525C325.258 465.525 327.689 462.822 327.689 458.699Z" fill="black"/>
<path d="M337.967 447.906H342.955V449.889C344.637 447.857 346.621 447.342 348.254 447.342C350.491 447.342 352.581 448.411 353.807 450.502C355.586 447.954 358.289 447.342 360.166 447.342C362.762 447.342 365.057 448.567 366.272 450.706C366.681 451.416 367.39 453.001 367.39 456.103V469.337H362.402V457.522C362.402 455.13 362.149 454.158 361.945 453.701C361.644 452.884 360.876 451.815 359.096 451.815C357.871 451.815 356.801 452.476 356.14 453.39C355.275 454.615 355.178 456.443 355.178 458.281V469.327H350.189V457.513C350.189 455.121 349.937 454.148 349.732 453.691C349.431 452.875 348.663 451.805 346.883 451.805C345.658 451.805 344.589 452.466 343.927 453.38C343.062 454.605 342.965 456.433 342.965 458.271V469.317H337.977V447.886L337.967 447.906Z" fill="black"/>
<path d="M378.695 480.995H373.707V447.906H378.695V450.249C380.523 448.061 382.925 447.352 385.055 447.352C390.704 447.352 395.488 451.679 395.488 458.505C395.488 465.739 390.189 470.008 385.103 470.008C383.936 470.008 380.932 469.599 378.686 466.847V481.005L378.695 480.995ZM378.394 458.748C378.394 463.23 381.291 465.515 384.452 465.515C388.069 465.515 390.412 462.413 390.412 458.689C390.412 454.965 388.069 451.815 384.452 451.815C381.291 451.815 378.394 454.051 378.394 458.738V458.748Z" fill="black"/>
<path d="M416.375 447.906H421.363V469.337H416.375V467.1C414.187 469.648 411.484 469.998 409.957 469.998C403.335 469.998 399.572 464.504 399.572 458.592C399.572 451.62 404.356 447.342 410.006 447.342C411.581 447.342 414.333 447.75 416.365 450.395V447.896L416.375 447.906ZM404.667 458.699C404.667 462.413 407.011 465.525 410.628 465.525C413.788 465.525 416.686 463.23 416.686 458.757C416.686 454.284 413.788 451.834 410.628 451.834C407.011 451.834 404.667 454.887 404.667 458.709V458.699Z" fill="black"/>
<path d="M427.625 447.906H432.613V449.889C434.752 447.497 437.193 447.342 438.418 447.342C442.385 447.342 444.068 449.325 444.729 450.239C445.546 451.406 446.051 452.884 446.051 456.2V469.337H441.063V457.425C441.063 451.98 439.031 451.824 437.144 451.824C434.908 451.824 432.613 452.126 432.613 459.059V469.346H427.625V447.916V447.906Z" fill="black"/>
<path d="M458.681 465.982L449.521 447.906H455.531L461.637 460.43L467.851 447.906H473.451L456.396 480.996H450.795L458.691 465.973L458.681 465.982Z" fill="black"/>
<path d="M89.0722 193.242C90.462 220.216 91.7254 247.253 91.7254 274.227C91.7254 289.767 90.9673 305.307 90.2093 320.847C101.58 264.752 119.401 212.328 136.458 157.748H209.598L111.056 406.596H42.389L20.4688 193.305" fill="black"/>
<path d="M41.7532 170.384H63.9893L82.1825 157.75H23.2441L41.7532 170.384Z" fill="black"/>
<path d="M97.8515 140.752H7.07513C3.15854 140.752 0 143.91 0 147.827C0 151.744 3.15854 154.902 7.07513 154.902H97.7884C101.705 154.902 104.863 151.744 104.863 147.827C104.863 143.91 101.705 140.752 97.7884 140.752H97.8515Z" fill="black"/>
<path d="M43.5233 173.23L37.8379 190.539H67.5913L62.664 173.23H43.5233Z" fill="black"/>
<path d="M215.978 140.752H130.003C125.991 140.752 122.738 143.962 122.738 147.922C122.738 151.882 125.991 155.092 130.003 155.092H215.978C219.99 155.092 223.243 151.882 223.243 147.922C223.243 143.962 219.99 140.752 215.978 140.752Z" fill="black"/>
</svg>
