<svg width="546" height="481" viewBox="0 0 546 481" fill="none" xmlns="http://www.w3.org/2000/svg">
<path d="M315.043 406.246H250.23C252.125 396.391 254.02 386.158 255.915 376.303C244.545 395.254 230.142 410.036 206.642 410.036C171.772 410.036 163.812 370.618 163.812 342.949C163.812 326.651 165.329 310.353 169.119 294.434C176.32 264.112 195.651 225.451 231.658 225.451C253.262 225.451 262.359 239.096 269.181 257.289C269.56 247.814 270.318 238.717 270.697 229.241H336.648L315.043 406.246ZM251.367 279.652C233.174 279.652 229.005 321.723 229.005 334.989C229.005 343.328 229.763 355.836 240.755 355.836C258.569 355.836 261.98 309.974 261.98 297.087C261.98 289.885 260.843 279.652 251.367 279.652Z" fill="white"/>
<path d="M392.296 406.248H327.482L361.595 129.939H426.408L392.296 406.248Z" fill="white"/>
<path d="M537.907 191.341C534.496 187.93 530.706 184.897 525.399 184.897C515.545 184.897 514.029 195.51 513.271 203.091L510.238 229.243H522.557C528.305 229.243 532.727 234.297 532.032 239.982L527.926 273.905C527.358 278.706 523.252 282.307 518.451 282.307H503.795L488.634 406.248H423.821L438.982 282.307H431.212C425.463 282.307 421.041 277.253 421.736 271.568L425.842 237.645C426.411 232.844 430.517 229.243 435.318 229.243H445.804C448.457 205.744 448.836 180.349 459.07 160.64C470.062 139.035 491.666 125.77 515.924 125.77C526.157 125.77 536.012 127.665 545.488 130.318L537.907 191.341Z" fill="white"/>
<path d="M43.7824 25.7686C41.066 23.1786 37.8443 21.4099 33.9277 21.4099C25.7155 21.4099 20.7882 28.8008 20.7882 36.4445C20.7882 51.3528 41.5714 57.2277 41.5714 78.7689C41.5714 93.4877 32.3485 108.712 16.1136 108.712C11.0599 108.712 6.57479 107.385 2.6582 104.1L4.23747 91.2136C7.71187 94.1194 11.3126 96.2672 15.9241 96.2672C24.5785 96.2672 28.9372 88.3077 28.9372 80.5377C28.9372 63.9238 7.96455 59.4387 7.96455 38.7818C7.96455 24.063 16.4926 9.84961 32.6643 9.84961C37.718 9.84961 41.066 10.4181 45.3616 13.0081L43.656 25.7055L43.7824 25.7686Z" fill="white"/>
<path d="M73.6608 52.1108H67.2805L60.4581 107.448H48.7715L55.5939 52.1108H49.0873L50.2244 42.8879H56.731L58.8788 24.5684H70.5654L68.4176 42.8879H74.7979L73.6608 52.1108Z" fill="white"/>
<path d="M92.1692 108.459C78.9034 108.459 75.6816 97.9094 75.6816 86.665C75.6816 70.4933 79.156 41.877 100.508 41.877C113.395 41.877 117.122 52.1106 117.122 63.2918C117.122 79.4636 113.774 108.522 92.106 108.522L92.1692 108.459ZM99.2443 52.6792C96.6543 52.6792 95.0751 54.0057 93.7485 56.0272C89.7056 62.0916 88.1263 80.4743 88.1263 87.9284C88.1263 91.845 88.8212 97.3409 93.938 97.3409C96.528 97.3409 98.1073 96.0143 99.5602 93.8665C103.603 87.8021 105.182 69.6089 105.182 62.0916C105.182 58.0487 104.488 52.6792 99.2443 52.6792Z" fill="white"/>
<path d="M155.661 56.2806C154.524 54.1328 152.629 53.2484 150.165 53.2484C138.731 53.2484 137.278 75.4845 137.278 83.5703C137.278 88.9399 137.594 97.1521 144.796 97.1521C147.133 97.1521 149.154 96.1413 150.986 94.6884L149.533 105.806C146.059 107.702 143.722 108.396 139.742 108.396C127.487 108.396 124.139 97.5311 124.139 87.1711C124.139 77.7586 125.718 66.9564 128.75 58.1125C131.909 48.8896 137.72 41.8145 148.27 41.8145C151.871 41.8145 154.082 42.383 157.24 44.1518L155.661 56.2806Z" fill="white"/>
<path d="M185.286 72.7682L200.005 107.449H186.739L173.726 75.3582L169.683 107.449H157.996L170.946 2.08008H182.633L174.231 70.4309L192.171 42.8252H205.753L185.223 72.7682H185.286Z" fill="white"/>
<path d="M258.245 108.459C244.98 108.459 241.758 97.9094 241.758 86.665C241.758 70.4933 245.232 41.877 266.584 41.877C279.471 41.877 283.198 52.1106 283.198 63.2918C283.198 79.4636 279.85 108.522 258.182 108.522L258.245 108.459ZM265.321 52.6792C262.731 52.6792 261.151 54.0057 259.825 56.0272C255.782 62.0916 254.202 80.4743 254.202 87.9284C254.202 91.845 254.897 97.3409 260.014 97.3409C262.604 97.3409 264.183 96.0143 265.636 93.8665C269.679 87.8021 271.259 69.6089 271.259 62.0916C271.259 58.0487 270.564 52.6792 265.321 52.6792Z" fill="white"/>
<path d="M324.574 14.7766C323.121 13.8922 321.541 13.1973 319.836 13.1973C312.887 13.1973 313.456 21.0305 312.761 25.8947L310.613 42.8244H320.594L319.457 52.3632H309.476L302.653 107.385H290.967L297.789 52.3632H291.851L292.988 42.8244H298.926L301.643 20.5883C302.969 9.91245 305.686 0.5 318.383 0.5C321.289 0.5 323.563 1.06854 326.216 2.20561L324.637 14.7766H324.574Z" fill="white"/>
<path d="M98.2467 460.79H83.7391L80.0246 468.987H74.4238L91.3235 433.039L107.416 468.987H101.815L98.2467 460.79ZM96.1561 455.909L91.1193 444.406L85.8783 455.909H96.1659H96.1561Z" fill="white"/>
<path d="M128.741 448.576L141.878 435.031H148.704L133.379 450.404L148.811 468.986H141.888L129.772 453.915L128.751 454.936V468.986H123.559V435.031H128.751V448.576H128.741Z" fill="white"/>
<path d="M155.875 447.557V459.828C155.875 461.102 155.924 462.58 156.789 463.698C157.45 464.563 158.617 465.176 160.046 465.176C161.476 465.176 162.643 464.563 163.304 463.698C164.169 462.58 164.218 461.102 164.218 459.828V447.557H169.206V459.983C169.206 462.735 168.905 465.02 166.911 467.014C164.918 469.007 162.331 469.658 159.939 469.658C157.752 469.658 155.107 468.997 153.172 467.014C151.188 465.03 150.877 462.735 150.877 459.983V447.557H155.865H155.875Z" fill="white"/>
<path d="M175.527 447.556H180.516V449.491C181.08 448.83 181.887 448.12 182.606 447.712C183.569 447.148 184.541 447.002 185.659 447.002C186.885 447.002 188.207 447.206 189.578 448.023L187.546 452.554C186.428 451.844 185.514 451.786 184.998 451.786C183.929 451.786 182.859 451.942 181.896 452.953C180.525 454.431 180.525 456.463 180.525 457.892V468.987H175.537V447.556H175.527Z" fill="white"/>
<path d="M196.249 447.557L201.743 459.779L207.247 447.557H212.848L201.753 470.514L190.658 447.557H196.259H196.249Z" fill="white"/>
<path d="M231.476 447.556H236.464V468.987H231.476V466.751C229.288 469.298 226.585 469.648 225.059 469.648C218.437 469.648 214.674 464.154 214.674 458.242C214.674 451.271 219.458 446.992 225.107 446.992C226.683 446.992 229.434 447.401 231.467 450.045V447.546L231.476 447.556ZM219.769 458.349C219.769 462.064 222.112 465.175 225.73 465.175C228.89 465.175 231.787 462.881 231.787 458.408C231.787 453.935 228.89 451.485 225.73 451.485C222.112 451.485 219.769 454.538 219.769 458.359V458.349Z" fill="white"/>
<path d="M247.771 431.873V468.988H242.783V431.873H247.771Z" fill="white"/>
<path d="M259.588 452.137V468.988H254.6V452.137H252.461V447.557H254.6V440.128C254.6 436.822 255.466 434.731 256.691 433.409C257.605 432.446 259.19 431.318 261.786 431.318C262.856 431.318 263.925 431.474 264.995 431.931V436.871C263.974 436.258 263.313 436.102 262.603 436.102C261.99 436.102 261.076 436.2 260.415 436.919C260.162 437.172 259.598 437.94 259.598 439.467V447.567H264.995V452.146H259.598L259.588 452.137Z" fill="white"/>
<path d="M305.761 442.975C301.998 439.562 298.478 439.212 296.543 439.212C289.163 439.212 284.175 444.657 284.175 452.144C284.175 459.631 289.367 464.872 296.602 464.872C300.676 464.872 303.836 462.782 305.761 460.954V467.119C302.348 469.151 298.789 469.666 296.446 469.666C290.281 469.666 286.421 466.866 284.428 464.979C280.46 461.265 278.982 456.938 278.982 452.144C278.982 445.882 281.579 441.555 284.428 438.852C287.938 435.546 292.012 434.418 296.699 434.418C299.801 434.418 302.805 434.982 305.761 436.859V442.965V442.975Z" fill="white"/>
<path d="M333.048 458.301C333.048 464.864 328.059 469.658 321.593 469.658C315.127 469.658 310.139 464.874 310.139 458.301C310.139 451.728 315.127 447.002 321.593 447.002C328.059 447.002 333.048 451.689 333.048 458.301ZM327.962 458.349C327.962 453.458 324.753 451.475 321.603 451.475C318.452 451.475 315.234 453.458 315.234 458.349C315.234 462.472 317.674 465.175 321.603 465.175C325.531 465.175 327.962 462.472 327.962 458.349Z" fill="white"/>
<path d="M338.24 447.556H343.228V449.54C344.911 447.508 346.894 446.992 348.528 446.992C350.764 446.992 352.855 448.062 354.08 450.152C355.859 447.605 358.563 446.992 360.439 446.992C363.035 446.992 365.33 448.217 366.546 450.357C366.954 451.066 367.664 452.651 367.664 455.753V468.987H362.676V457.173C362.676 454.781 362.423 453.808 362.219 453.351C361.917 452.535 361.149 451.465 359.37 451.465C358.144 451.465 357.075 452.126 356.414 453.04C355.548 454.265 355.451 456.094 355.451 457.931V468.977H350.463V457.163C350.463 454.771 350.21 453.799 350.006 453.342C349.704 452.525 348.936 451.455 347.157 451.455C345.932 451.455 344.862 452.117 344.201 453.031C343.335 454.256 343.238 456.084 343.238 457.922V468.968H338.25V447.537L338.24 447.556Z" fill="white"/>
<path d="M378.969 480.646H373.98V447.556H378.969V449.9C380.797 447.712 383.198 447.002 385.328 447.002C390.977 447.002 395.761 451.329 395.761 458.155C395.761 465.389 390.462 469.658 385.377 469.658C384.21 469.658 381.205 469.25 378.959 466.498V480.655L378.969 480.646ZM378.667 458.398C378.667 462.881 381.565 465.166 384.725 465.166C388.342 465.166 390.686 462.064 390.686 458.34C390.686 454.616 388.342 451.465 384.725 451.465C381.565 451.465 378.667 453.702 378.667 458.388V458.398Z" fill="white"/>
<path d="M416.648 447.556H421.636V468.987H416.648V466.751C414.46 469.298 411.757 469.648 410.231 469.648C403.609 469.648 399.846 464.154 399.846 458.242C399.846 451.271 404.63 446.992 410.279 446.992C411.854 446.992 414.606 447.401 416.638 450.045V447.546L416.648 447.556ZM404.941 458.349C404.941 462.064 407.284 465.175 410.901 465.175C414.062 465.175 416.959 462.881 416.959 458.408C416.959 453.935 414.062 451.485 410.901 451.485C407.284 451.485 404.941 454.538 404.941 458.359V458.349Z" fill="white"/>
<path d="M427.898 447.556H432.887V449.54C435.026 447.148 437.466 446.992 438.692 446.992C442.659 446.992 444.341 448.976 445.002 449.89C445.819 451.057 446.325 452.535 446.325 455.85V468.987H441.337V457.076C441.337 451.63 439.304 451.475 437.418 451.475C435.181 451.475 432.887 451.776 432.887 458.709V468.997H427.898V447.566V447.556Z" fill="white"/>
<path d="M458.955 465.633L449.795 447.557H455.804L461.911 460.081L468.124 447.557H473.725L456.67 480.646H451.069L458.964 465.623L458.955 465.633Z" fill="white"/>
<path d="M89.3437 192.893C90.7335 219.867 91.9969 246.904 91.9969 273.878C91.9969 289.418 91.2388 304.958 90.4808 320.498C101.852 264.402 119.673 211.978 136.729 157.398H209.87L111.327 406.247H42.6605L20.7402 192.956" fill="white"/>
<path d="M42.0266 170.035H64.2627L82.4559 157.4H23.5176L42.0266 170.035Z" fill="white"/>
<path d="M98.123 140.402H7.34661C3.43002 140.402 0.271484 143.561 0.271484 147.477C0.271484 151.394 3.43002 154.553 7.34661 154.553H98.0599C101.976 154.553 105.135 151.394 105.135 147.477C105.135 143.561 101.976 140.402 98.0599 140.402H98.123Z" fill="white"/>
<path d="M43.7947 172.881L38.1094 190.19H67.8628L62.9355 172.881H43.7947Z" fill="white"/>
<path d="M216.25 140.402H130.274C126.262 140.402 123.01 143.612 123.01 147.572C123.01 151.532 126.262 154.742 130.274 154.742H216.25C220.262 154.742 223.514 151.532 223.514 147.572C223.514 143.612 220.262 140.402 216.25 140.402Z" fill="white"/>
</svg>
