<svg width="344" height="256" viewBox="0 0 344 256" fill="none" xmlns="http://www.w3.org/2000/svg">
<path d="M56.4873 118.896C57.3527 135.692 58.1394 152.528 58.1394 169.324C58.1394 179.001 57.6674 188.678 57.1953 198.354C64.2758 163.424 75.3685 130.421 85.9892 96.4351H131.776L70.1762 253.11H27.4181L13.7686 118.935" fill="white"/>
<path d="M199.831 253.109H159.473C160.653 246.973 161.833 240.601 163.013 234.464C155.932 246.265 146.964 255.47 132.331 255.47C110.617 255.47 105.661 230.924 105.661 213.695C105.661 203.546 106.605 193.398 108.965 183.485C113.45 164.604 125.486 140.53 147.908 140.53C161.361 140.53 167.025 149.027 171.273 160.356C171.509 154.455 171.981 148.791 172.217 142.89H213.284L199.831 253.109ZM160.181 174.28C148.852 174.28 146.256 200.478 146.256 208.739C146.256 213.931 146.728 221.719 153.572 221.719C164.665 221.719 166.789 193.162 166.789 185.137C166.789 180.653 166.081 174.28 160.181 174.28Z" fill="white"/>
<path d="M247.936 253.11H207.578L228.819 81.0547H269.178L247.936 253.11Z" fill="white"/>
<path d="M338.607 119.289C336.483 117.165 334.123 115.277 330.819 115.277C324.682 115.277 323.738 121.885 323.266 126.606L321.378 142.891H329.049C332.628 142.891 335.382 146.037 334.949 149.578L332.392 170.701C332.038 173.691 329.481 175.933 326.492 175.933H317.366L307.925 253.11H267.567L277.007 175.933H272.169C268.589 175.933 265.836 172.786 266.268 169.246L268.825 148.122C269.179 145.133 271.736 142.891 274.726 142.891H281.255C282.908 128.258 283.144 112.445 289.516 100.172C296.36 86.719 309.813 78.4585 324.918 78.4585C331.291 78.4585 337.427 79.6386 343.327 81.2907L338.607 119.289Z" fill="white"/>
<path d="M26.6734 104.303H40.5196L51.8483 96.4355H15.1479L26.6734 104.303Z" fill="white"/>
<path d="M61.6041 85.854H5.07847C2.63964 85.854 0.672852 87.8208 0.672852 90.2596C0.672852 92.6984 2.63964 94.6652 5.07847 94.6652H61.5647C64.0036 94.6652 65.9704 92.6984 65.9704 90.2596C65.9704 87.8208 64.0036 85.854 61.5647 85.854H61.6041Z" fill="white"/>
<path d="M27.7758 105.562L24.2356 116.34H42.7628L39.6946 105.562H27.7758Z" fill="white"/>
<path d="M135.16 85.6567H81.6242C79.1259 85.6567 77.1006 87.682 77.1006 90.1804C77.1006 92.6787 79.1259 94.704 81.6242 94.704H135.16C137.659 94.704 139.684 92.6787 139.684 90.1804C139.684 87.682 137.659 85.6567 135.16 85.6567Z" fill="white"/>
<path d="M30.9201 16.19C29.2287 14.5772 27.2226 13.4758 24.7837 13.4758C19.6701 13.4758 16.6019 18.0781 16.6019 22.8377C16.6019 32.121 29.5434 35.7792 29.5434 49.1927C29.5434 58.358 23.8003 67.8379 13.691 67.8379C10.5442 67.8379 7.75132 67.0119 5.3125 64.9664L6.2959 56.9419C8.45937 58.7514 10.7015 60.0888 13.573 60.0888C18.962 60.0888 21.6762 55.1325 21.6762 50.2942C21.6762 39.9488 8.61671 37.156 8.61671 24.2932C8.61671 15.1279 13.927 6.27734 23.997 6.27734C27.1439 6.27734 29.2287 6.63137 31.9035 8.24414L30.8415 16.1506L30.9201 16.19Z" fill="white"/>
<path d="M49.5254 32.5928H45.5525L41.3042 67.051H34.0271L38.2754 32.5928H34.2238L34.9318 26.8498H38.9834L40.3208 15.4424H47.598L46.2605 26.8498H50.2335L49.5254 32.5928Z" fill="white"/>
<path d="M61.0491 67.6807C52.7886 67.6807 50.7825 61.1116 50.7825 54.1098C50.7825 44.0398 52.9459 26.2207 66.2415 26.2207C74.266 26.2207 76.5868 32.5931 76.5868 39.5556C76.5868 49.6255 74.502 67.72 61.0098 67.72L61.0491 67.6807ZM65.4547 32.9471C63.842 32.9471 62.8586 33.7732 62.0325 35.0319C59.515 38.8082 58.5316 50.2549 58.5316 54.8965C58.5316 57.3354 58.9643 60.7576 62.1505 60.7576C63.7633 60.7576 64.7467 59.9315 65.6514 58.5941C68.1689 54.8179 69.1523 43.4891 69.1523 38.8082C69.1523 36.2907 68.7196 32.9471 65.4547 32.9471Z" fill="white"/>
<path d="M100.586 35.1891C99.8781 33.8516 98.698 33.3009 97.1639 33.3009C90.0441 33.3009 89.1394 47.1472 89.1394 52.1821C89.1394 55.5257 89.3361 60.6394 93.8203 60.6394C95.2758 60.6394 96.5345 60.01 97.6753 59.1053L96.7705 66.0284C94.6071 67.2084 93.1516 67.6411 90.6735 67.6411C83.0423 67.6411 80.9575 60.8754 80.9575 54.4243C80.9575 48.5632 81.9409 41.8368 83.829 36.3298C85.7958 30.5868 89.4147 26.1812 95.9838 26.1812C98.226 26.1812 99.6027 26.5352 101.569 27.6366L100.586 35.1891Z" fill="white"/>
<path d="M119.031 45.4558L128.197 67.0512H119.936L111.833 47.0685L109.315 67.0512H102.038L110.102 1.43896H117.379L112.148 44.0003L123.319 26.8106H131.776L118.992 45.4558H119.031Z" fill="white"/>
<path d="M164.464 67.6807C156.203 67.6807 154.197 61.1116 154.197 54.1098C154.197 44.0398 156.36 26.2207 169.656 26.2207C177.681 26.2207 180.001 32.5931 180.001 39.5556C180.001 49.6255 177.917 67.72 164.424 67.72L164.464 67.6807ZM168.869 32.9471C167.257 32.9471 166.273 33.7732 165.447 35.0319C162.93 38.8082 161.946 50.2549 161.946 54.8965C161.946 57.3354 162.379 60.7576 165.565 60.7576C167.178 60.7576 168.161 59.9315 169.066 58.5941C171.583 54.8179 172.567 43.4891 172.567 38.8082C172.567 36.2907 172.134 32.9471 168.869 32.9471Z" fill="white"/>
<path d="M205.766 9.34547C204.862 8.79476 203.878 8.36207 202.816 8.36207C198.489 8.36207 198.843 13.2397 198.41 16.2686L197.073 26.8106H203.288L202.58 32.7503H196.365L192.117 67.0118H184.84L189.088 32.7503H185.39L186.098 26.8106H189.796L191.487 12.9644C192.313 6.31661 194.005 0.455566 201.911 0.455566C203.721 0.455566 205.137 0.809589 206.789 1.51763L205.806 9.34547H205.766Z" fill="white"/>
</svg>
