<svg width="344" height="256" viewBox="0 0 344 256" fill="none" xmlns="http://www.w3.org/2000/svg">
<path d="M56.4873 118.611C57.3527 135.407 58.1394 152.243 58.1394 169.039C58.1394 178.716 57.6674 188.392 57.1953 198.069C64.2758 163.139 75.3685 130.136 85.9892 96.1499H131.776L70.1762 252.825H27.4181L13.7686 118.65" fill="black"/>
<path d="M199.831 252.824H159.473C160.653 246.688 161.833 240.316 163.013 234.179C155.932 245.98 146.964 255.184 132.331 255.184C110.617 255.184 105.661 230.639 105.661 213.41C105.661 203.261 106.605 193.112 108.965 183.2C113.45 164.319 125.486 140.245 147.908 140.245C161.361 140.245 167.025 148.742 171.273 160.07C171.509 154.17 171.981 148.506 172.217 142.605H213.284L199.831 252.824ZM160.181 173.995C148.852 173.995 146.256 200.193 146.256 208.453C146.256 213.646 146.728 221.434 153.572 221.434C164.665 221.434 166.789 192.876 166.789 184.852C166.789 180.368 166.081 173.995 160.181 173.995Z" fill="black"/>
<path d="M247.936 252.825H207.578L228.819 80.7695H269.178L247.936 252.825Z" fill="black"/>
<path d="M338.607 119.004C336.483 116.88 334.123 114.992 330.819 114.992C324.682 114.992 323.738 121.6 323.266 126.32L321.378 142.605H329.049C332.628 142.605 335.382 145.752 334.949 149.293L332.392 170.416C332.038 173.405 329.481 175.648 326.492 175.648H317.366L307.925 252.824H267.567L277.007 175.648H272.169C268.589 175.648 265.836 172.501 266.268 168.96L268.825 147.837C269.179 144.848 271.736 142.605 274.726 142.605H281.255C282.908 127.973 283.144 112.16 289.516 99.8867C296.36 86.4339 309.813 78.1733 324.918 78.1733C331.291 78.1733 337.427 79.3534 343.327 81.0055L338.607 119.004Z" fill="black"/>
<path d="M26.6734 104.018H40.5196L51.8483 96.1504H15.1479L26.6734 104.018Z" fill="black"/>
<path d="M61.6041 85.5688H5.07847C2.63964 85.5688 0.672852 87.5356 0.672852 89.9745C0.672852 92.4133 2.63964 94.3801 5.07847 94.3801H61.5647C64.0036 94.3801 65.9704 92.4133 65.9704 89.9745C65.9704 87.5356 64.0036 85.5688 61.5647 85.5688H61.6041Z" fill="black"/>
<path d="M27.7758 105.276L24.2356 116.054H42.7628L39.6946 105.276H27.7758Z" fill="black"/>
<path d="M135.16 85.3716H81.6242C79.1259 85.3716 77.1006 87.3969 77.1006 89.8952C77.1006 92.3935 79.1259 94.4188 81.6242 94.4188H135.16C137.659 94.4188 139.684 92.3935 139.684 89.8952C139.684 87.3969 137.659 85.3716 135.16 85.3716Z" fill="black"/>
<path d="M30.9201 15.9048C29.2287 14.2921 27.2226 13.1906 24.7837 13.1906C19.6701 13.1906 16.6019 17.7929 16.6019 22.5526C16.6019 31.8358 29.5434 35.4941 29.5434 48.9076C29.5434 58.0728 23.8003 67.5528 13.691 67.5528C10.5442 67.5528 7.75132 66.7267 5.3125 64.6813L6.2959 56.6568C8.45937 58.4662 10.7015 59.8036 13.573 59.8036C18.962 59.8036 21.6762 54.8473 21.6762 50.009C21.6762 39.6637 8.61671 36.8708 8.61671 24.008C8.61671 14.8428 13.927 5.99219 23.997 5.99219C27.1439 5.99219 29.2287 6.34621 31.9035 7.95898L30.8415 15.8655L30.9201 15.9048Z" fill="black"/>
<path d="M49.5254 32.3077H45.5525L41.3042 66.7659H34.0271L38.2754 32.3077H34.2238L34.9318 26.5646H38.9834L40.3208 15.1572H47.598L46.2605 26.5646H50.2335L49.5254 32.3077Z" fill="black"/>
<path d="M61.0491 67.3955C52.7886 67.3955 50.7825 60.8264 50.7825 53.8247C50.7825 43.7547 52.9459 25.9355 66.2415 25.9355C74.266 25.9355 76.5868 32.308 76.5868 39.2704C76.5868 49.3404 74.502 67.4349 61.0098 67.4349L61.0491 67.3955ZM65.4547 32.662C63.842 32.662 62.8586 33.488 62.0325 34.7468C59.515 38.523 58.5316 49.9697 58.5316 54.6114C58.5316 57.0502 58.9643 60.4724 62.1505 60.4724C63.7633 60.4724 64.7467 59.6464 65.6514 58.3089C68.1689 54.5327 69.1523 43.204 69.1523 38.523C69.1523 36.0055 68.7196 32.662 65.4547 32.662Z" fill="black"/>
<path d="M100.586 34.9039C99.8781 33.5665 98.698 33.0158 97.1639 33.0158C90.0441 33.0158 89.1394 46.862 89.1394 51.897C89.1394 55.2405 89.3361 60.3542 93.8203 60.3542C95.2758 60.3542 96.5345 59.7248 97.6753 58.8201L96.7705 65.7432C94.6071 66.9233 93.1516 67.356 90.6735 67.356C83.0423 67.356 80.9575 60.5902 80.9575 54.1391C80.9575 48.2781 81.9409 41.5517 83.829 36.0446C85.7958 30.3016 89.4147 25.896 95.9838 25.896C98.226 25.896 99.6027 26.25 101.569 27.3514L100.586 34.9039Z" fill="black"/>
<path d="M119.031 45.1706L128.197 66.766H119.936L111.833 46.7834L109.315 66.766H102.038L110.102 1.15381H117.379L112.148 43.7152L123.319 26.5254H131.776L118.992 45.1706H119.031Z" fill="black"/>
<path d="M164.464 67.3955C156.203 67.3955 154.197 60.8264 154.197 53.8247C154.197 43.7547 156.36 25.9355 169.656 25.9355C177.681 25.9355 180.001 32.308 180.001 39.2704C180.001 49.3404 177.917 67.4349 164.424 67.4349L164.464 67.3955ZM168.869 32.662C167.257 32.662 166.273 33.488 165.447 34.7468C162.93 38.523 161.946 49.9697 161.946 54.6114C161.946 57.0502 162.379 60.4724 165.565 60.4724C167.178 60.4724 168.161 59.6464 169.066 58.3089C171.583 54.5327 172.567 43.204 172.567 38.523C172.567 36.0055 172.134 32.662 168.869 32.662Z" fill="black"/>
<path d="M205.766 9.06031C204.862 8.50961 203.878 8.07691 202.816 8.07691C198.489 8.07691 198.843 12.9546 198.41 15.9834L197.073 26.5254H203.288L202.58 32.4651H196.365L192.117 66.7267H184.84L189.088 32.4651H185.39L186.098 26.5254H189.796L191.487 12.6792C192.313 6.03145 194.005 0.17041 201.911 0.17041C203.721 0.17041 205.137 0.524433 206.789 1.23248L205.806 9.06031H205.766Z" fill="black"/>
</svg>
